<!-- Generator: Adobe Illustrator 19.0.0, SVG Export Plug-In  -->
<svg version="1.1"
	 xmlns="http://www.w3.org/2000/svg" xmlns:xlink="http://www.w3.org/1999/xlink" xmlns:a="http://ns.adobe.com/AdobeSVGViewerExtensions/3.0/"
	 x="0px" y="0px" width="158px" height="156.9px" viewBox="0 0 458 456.9" style="enable-background:new 0 0 458 456.9;"
	 xml:space="preserve">
<style type="text/css">
	.st0{fill:#E0E0E2;}
	.st1{fill:#00ACEA;}
	.st2{fill:#00EFD1;}
	.st3{fill:#D4E1F4;}
	.st4{fill:#FFFFFF;}
</style>
<defs>
</defs>
<path class="st0" d="M385.1,133.9v78.8h-32c-4.1-0.4-8.4-0.6-12.6-0.6c-4.3,0-8.5,0.2-12.6,0.6h-36.3v-78.8H385.1z"/>
<path class="st1" d="M93.5,133.9H0V55.5c0-4.7,1.9-9.2,5.2-12.5s7.8-5.2,12.5-5.2h33.4v43.5h61.6V37.8h159.6v43.5h61.7V37.8h33.4
	c4.7,0,9.2,1.9,12.5,5.2c3.3,3.3,5.2,7.8,5.2,12.5v78.4L93.5,133.9L93.5,133.9z"/>
<path class="st2" d="M333.9,37.8v43.6h-61.6V0h61.6V37.8z"/>
<path class="st0" d="M291.6,221.7c-31.4,13.1-56.3,38.1-69.2,69.7h-29.8v-78.8h99.1v9.1H291.6z"/>
<path class="st3" d="M192.6,133.9h99.1v78.8h-99.1V133.9z"/>
<path class="st3" d="M222.4,291.4c-11.1,27.4-12.4,57.7-3.7,86h-26.1v-85.9h29.8V291.4z"/>
<path class="st0" d="M93.5,291.4h99.1v85.9H93.5V291.4z"/>
<path class="st3" d="M93.5,212.6h99.1v78.8H93.5V212.6z"/>
<path class="st0" d="M93.5,133.9h99.1v78.8H93.5V133.9z"/>
<path class="st2" d="M112.7,37.8v43.6H51.2V0h61.6V37.8z"/>
<path class="st3" d="M93.5,291.4v85.9H17.7c-4.7,0-9.2-1.9-12.5-5.2S0,364.2,0,359.5v-68.2H93.5z"/>
<path class="st0" d="M0,212.6h93.5v78.8H0V212.6z"/>
<path class="st3" d="M0,133.9h93.5v78.8H0V133.9z"/>
<path class="st2" d="M375.1,210c60.5,22.6,94.5,86.8,79.3,149.6s-75,104.2-139.1,96.5C251.2,448.3,203,393.9,203,329.3
	c0-16.5,3.1-32.8,9.4-48.1c12.9-31.5,37.8-56.6,69.2-69.7c11.6-4.8,23.8-7.8,36.3-9.1H343C354,203.7,364.8,206.2,375.1,210z
	 M323.8,370.6l66.7-66.9l-28.9-28.9l-66.9,66.7L281.4,384L323.8,370.6z"/>
<rect x="255" y="259.7" class="st2" width="149" height="142"/>
<g>
	<path class="st4" d="M258.1,285.2v8.6h6v6.9h-6v17.5c0,1.3,0.2,2.2,0.7,2.8c0.5,0.6,1.4,0.8,2.8,0.8c1,0,2-0.1,2.8-0.2v7.1
		c-1.8,0.6-3.7,0.8-5.7,0.8c-6.6,0-9.9-3.3-10-9.9v-18.9h-5.1v-6.9h5.1v-8.6H258.1z"/>
	<path class="st4" d="M278.4,297.6c2.5-3,5.6-4.5,9.4-4.5c7.6,0,11.4,4.4,11.6,13.2v22.4H290v-22.2c0-2-0.4-3.5-1.3-4.5
		c-0.9-1-2.3-1.4-4.3-1.4c-2.7,0-4.7,1.1-6,3.2v24.9h-9.4v-49.7h9.4V297.6z"/>
	<path class="st4" d="M326.1,302.6c-1.3-0.2-2.4-0.3-3.4-0.3c-3.5,0-5.9,1.2-7,3.6v22.9h-9.4v-35h8.8l0.3,4.2
		c1.9-3.2,4.5-4.8,7.8-4.8c1,0,2,0.1,2.9,0.4L326.1,302.6z"/>
	<path class="st4" d="M327.9,311c0-3.5,0.7-6.6,2-9.3c1.3-2.7,3.3-4.8,5.8-6.3c2.5-1.5,5.4-2.2,8.8-2.2c4.7,0,8.6,1.4,11.6,4.3
		c3,2.9,4.7,6.8,5,11.8l0.1,2.4c0,5.4-1.5,9.7-4.5,12.9s-7,4.9-12.1,4.9c-5,0-9.1-1.6-12.1-4.9c-3-3.2-4.5-7.6-4.5-13.2V311z
		 M337.3,311.7c0,3.3,0.6,5.9,1.9,7.6c1.3,1.8,3,2.6,5.4,2.6c2.3,0,4-0.9,5.3-2.6c1.3-1.7,1.9-4.5,1.9-8.3c0-3.3-0.6-5.8-1.9-7.6
		c-1.3-1.8-3.1-2.7-5.4-2.7c-2.3,0-4.1,0.9-5.3,2.7C337.9,305.2,337.3,307.9,337.3,311.7z"/>
	<path class="st4" d="M397.3,316.1l4.6-22.3h9l-8.9,35h-7.8l-6.6-22l-6.6,22h-7.8l-8.9-35h9l4.6,22.3l6.4-22.3h6.8L397.3,316.1z"/>
	<path class="st4" d="M291.4,371.7c0,5.6-1.2,10-3.6,13.1c-2.4,3.1-5.7,4.7-10,4.7c-3.8,0-6.8-1.5-9.1-4.4l-0.4,3.7h-8.4v-49.7h9.4
		V357c2.2-2.5,5-3.8,8.5-3.8c4.3,0,7.6,1.6,10,4.7c2.4,3.1,3.6,7.6,3.6,13.3V371.7z M282,371c0-3.5-0.6-6.1-1.7-7.8
		c-1.1-1.6-2.8-2.4-5-2.4c-3,0-5,1.2-6.1,3.7v13.8c1.1,2.5,3.2,3.7,6.2,3.7c3,0,5-1.5,6-4.5C281.8,376.1,282,373.9,282,371z"/>
	<path class="st4" d="M317.4,388.8c-0.4-0.8-0.7-1.9-0.9-3.1c-2.3,2.5-5.2,3.8-8.8,3.8c-3.4,0-6.3-1-8.5-3c-2.3-2-3.4-4.5-3.4-7.5
		c0-3.7,1.4-6.6,4.1-8.5c2.8-2,6.7-3,11.9-3h4.3v-2c0-1.6-0.4-2.9-1.2-3.9c-0.8-1-2.1-1.5-3.9-1.5c-1.6,0-2.8,0.4-3.7,1.1
		c-0.9,0.8-1.3,1.8-1.3,3.1h-9.4c0-2,0.6-3.9,1.9-5.6c1.3-1.7,3-3.1,5.3-4.1c2.3-1,4.9-1.5,7.7-1.5c4.3,0,7.7,1.1,10.3,3.3
		c2.5,2.2,3.8,5.2,3.8,9.1v15.2c0,3.3,0.5,5.8,1.4,7.5v0.5H317.4z M309.7,382.3c1.4,0,2.7-0.3,3.8-0.9c1.2-0.6,2-1.4,2.6-2.5v-6
		h-3.5c-4.7,0-7.2,1.6-7.5,4.9l0,0.6c0,1.2,0.4,2.1,1.2,2.9C307.1,382,308.3,382.3,309.7,382.3z"/>
	<path class="st4" d="M347.2,381.9c1.7,0,3.1-0.5,4.2-1.4c1.1-0.9,1.6-2.2,1.7-3.8h8.8c0,2.4-0.7,4.5-1.9,6.5s-3,3.5-5.2,4.6
		c-2.2,1.1-4.7,1.6-7.3,1.6c-5,0-9-1.6-11.8-4.8c-2.9-3.2-4.3-7.6-4.3-13.2v-0.6c0-5.4,1.4-9.7,4.3-12.9c2.9-3.2,6.8-4.8,11.8-4.8
		c4.4,0,7.9,1.2,10.5,3.7c2.6,2.5,4,5.8,4,10h-8.8c0-1.8-0.6-3.3-1.7-4.4c-1.1-1.1-2.5-1.7-4.3-1.7c-2.2,0-3.8,0.8-4.9,2.4
		s-1.7,4.2-1.7,7.7v1c0,3.6,0.5,6.2,1.7,7.8C343.3,381.2,345,381.9,347.2,381.9z"/>
	<path class="st4" d="M379.9,374.8l-3.4,3.4v10.7h-9.4v-49.7h9.4v27.5l1.8-2.3l9-10.5h11.2l-12.7,14.6l13.8,20.4h-10.7L379.9,374.8z
		"/>
</g>
</svg>
